# xmcd
# 
# Track frame offsets:
#     150
#     15485
#     29662
#     51595
#     69775
#     80290
#     102442
#     122187
#     139885
# 
# Disc length: 2119
# 
# Revision: 21
# Processed by: cddbd v1.5.2PL0 Copyright (c) Steve Scherf et al.
# Submitted via: fre:ac v1.0.17
# 
DISCID=79084509
DTITLE=Aerosmith - Draw The Line
DYEAR=1977
DGENRE=Rock
TTITLE0=Draw The Line
TTITLE1=I Wanna Know Why
TTITLE2=Critical Mass
TTITLE3=Get It Up
TTITLE4=Bright Light Fright
TTITLE5=Kings And Queens
TTITLE6=The Hand That Feeds
TTITLE7=Sight For Sore Eyes
TTITLE8=Milk Cow Blues
EXTD=
EXTT0=
EXTT1=
EXTT2=
EXTT3=
EXTT4=
EXTT5=
EXTT6=
EXTT7=
EXTT8=
PLAYORDER=
